<svg width="65" height="65" viewBox="0 0 65 65" fill="none" xmlns="http://www.w3.org/2000/svg">
<g id="Group 7">
<rect id="Rectangle" width="65" height="65" rx="16" fill="#F16718"/>
<path id="Shape" fill-rule="evenodd" clip-rule="evenodd" d="M34.9473 32.9306L40.9216 26.9313C41.2698 26.5825 41.4426 26.095 41.3952 25.6044C41.3465 25.1131 41.0799 24.6694 40.672 24.3943L33.0749 19.2818C32.5679 18.9397 31.9086 18.9069 31.3699 19.1936C30.8306 19.4809 30.4831 20.0421 30.4831 20.652V28.5937L26.5333 24.6006C25.8905 23.953 24.8545 23.9487 24.2068 24.5903C23.5592 25.2331 23.5543 26.2794 24.1971 26.9271L30.1501 32.9294L24.1971 38.9311C23.5543 39.5782 23.5592 40.6245 24.2068 41.2685C24.8545 41.9107 25.8911 41.9071 26.5333 41.2582L30.4831 37.2651V45.2062C30.4831 45.8167 30.8306 46.3779 31.3699 46.6646C31.9086 46.9519 32.5679 46.9184 33.0749 46.5757L40.6714 41.4651C41.0805 41.1894 41.3465 40.7451 41.3946 40.2551C41.442 39.7638 41.2692 39.2775 40.921 38.9275L34.9473 32.9306ZM33.8358 23.757L37.1939 26.0171L33.8358 29.3886V23.757ZM33.8358 36.4732V42.1049L37.1939 39.8448L33.8358 36.4732Z" fill="white"/>
</g>
</svg>
