<svg width="65" height="65" viewBox="0 0 65 65" fill="none" xmlns="http://www.w3.org/2000/svg">
<g id="Group 5">
<rect id="Rectangle" width="65" height="65" rx="16" fill="#F16718"/>
<path id="Shape" fill-rule="evenodd" clip-rule="evenodd" d="M45.3333 27.3333H45.6547C46.9413 27.3333 47.988 28.38 47.988 29.6667V37C47.988 38.2867 46.9413 39.3333 45.6547 39.3333H45.3333V39.6667C45.3333 41.6893 43.688 43.3333 41.6667 43.3333H19.6667C17.6453 43.3333 16 41.6893 16 39.6667V27C16 24.9773 17.6453 23.3333 19.6667 23.3333H41.6667C43.688 23.3333 45.3333 24.9773 45.3333 27V27.3333ZM24.3333 39.3333C24.8853 39.3333 25.3333 38.8853 25.3333 38.3333V28.3333C25.3333 27.7813 24.8853 27.3333 24.3333 27.3333H21C20.448 27.3333 20 27.7813 20 28.3333V38.3333C20 38.8853 20.448 39.3333 21 39.3333H24.3333ZM33.3333 38.3333C33.3333 38.8853 32.8853 39.3333 32.3333 39.3333H29C28.448 39.3333 28 38.8853 28 38.3333V28.3333C28 27.7813 28.448 27.3333 29 27.3333H32.3333C32.8853 27.3333 33.3333 27.7813 33.3333 28.3333V38.3333ZM40.3333 39.3333C40.8853 39.3333 41.3333 38.8853 41.3333 38.3333V28.3333C41.3333 27.7813 40.8853 27.3333 40.3333 27.3333H37C36.448 27.3333 36 27.7813 36 28.3333V38.3333C36 38.8853 36.448 39.3333 37 39.3333H40.3333Z" fill="white"/>
</g>
</svg>
